inDegrees=yes
name=ik_Xsens
DataType=double
version=3
OpenSimVersion=4.4-2022-07-23-0e9fedc
endheader
time	pelvis_tilt	pelvis_list	pelvis_rotation	pelvis_tx	pelvis_ty	pelvis_tz	hip_flexion_r	hip_adduction_r	hip_rotation_r	knee_angle_r	knee_angle_r_beta	ankle_angle_r	subtalar_angle_r	mtp_angle_r	hip_flexion_l	hip_adduction_l	hip_rotation_l	knee_angle_l	knee_angle_l_beta	ankle_angle_l	subtalar_angle_l	mtp_angle_l	lumbar_extension	lumbar_bending	lumbar_rotation	arm_flex_r	arm_add_r	arm_rot_r	elbow_flex_r	pro_sup_r	wrist_flex_r	wrist_dev_r	arm_flex_l	arm_add_l	arm_rot_l	elbow_flex_l	pro_sup_l	wrist_flex_l	wrist_dev_l
40.5	3.029517519545747e-27	5.949745912841439e-22	-4.327809262505965e-29	2.385000413813866e-28	0.93	1.931297270401e-29	-5.38806921148701e-35	4.711190956396288e-26	6.869900174852876e-34	5.996549689973314e-16	1.046621196669437e-17	-1.099559206542695e-21	-9.364028159384005e-21	-5.956737843246834e-20	-5.542192336387464e-25	1.669439364487135e-31	1.902053044511911e-22	5.992765315524593e-16	1.045937141882446e-17	-3.246151859513425e-18	1.619115349790134e-26	3.276608477296062e-19	5.012544063905359e-27	8.868945563182334e-20	3.996592539144636e-25	18.37972815757707	-4.900923926709727	0.9103930798741678	431.4671238894122	405.2812316729611	-7.90500180699916e-20	-1.28809780393031e-19	157.6109668358631	1.964109421355788	38.16112200667434	-158.2863579543552	89.53401743656939	6.455498432169504e-21	-1.935003186952609e-20
40.51666666666667	0	0	0	0	0.93	0	0	0	0	3.041727303750573e-39	5.27027824294257e-41	0	0	0	0	0	0	9.876033275648329e-40	-6.577911121986208e-42	0	0	0	0	0	0	15.04672051313523	-4.089983570494535	0.3303965724166598	430.3023612503054	406.1666128257228	0	0	157.480511175416	2.006816894631347	38.15370415099522	-158.2025764837336	89.55189140010556	0	0
40.53333333333333	0	0	0	0	0.93	0	0	0	0	0	0	0	0	0	0	0	0	0	0	0	0	0	0	0	0	13.32554324536564	-3.343413460681706	-0.6369952701355504	423.3990780181029	405.4212163997909	0	0	157.2734490101148	2.110428177665292	38.21070342756327	-158.1798648437322	89.36283644898776	0	0
40.55	-3.705527387643126e-30	4.413592138964898e-23	-8.536946992679623e-31	-6.438816226066892e-25	0.93	7.708850097554995e-26	6.240928535146418e-38	-1.426010116491974e-23	-4.183319670194378e-29	3.144404749829561e-07	5.488021594587152e-09	-1.563515963410393e-17	8.1222444879352e-19	-1.294679521350494e-15	-8.081967679621452e-24	-3.131140663099504e-25	-1.945558069887241e-24	3.144404749829585e-07	5.488021617096295e-09	2.446258743947185e-16	-9.404594907433505e-18	-1.489027723615745e-18	6.081833381024046e-17	-2.5143767449915e-18	-1.589663122400959e-14	10.89914884248904	-2.003831180424928	-1.683312445473323	421.1654582922899	406.1853720924735	-2.232753509174703e-17	-2.018801719967819e-19	157.0275033323283	2.233745405675475	38.23426197697907	-158.1135941645727	88.9502134475018	-7.029431253499439e-20	-1.208184992852852e-22
40.56666666666666	0	0	0	0	0.93	0	0	0	0	9.573197473194267e-39	1.107610347400171e-40	0	0	0	0	0	0	6.099137481798084e-39	2.021520280603745e-41	0	0	0	0	0	0	8.01932771713197	-0.8906690824179279	-2.954386989055827	419.5240043641902	406.7149807850498	0	0	156.8470916425098	2.281846586908303	38.15865066160011	-157.9379470495874	88.57381796106984	0	0
40.58333333333334	1.140485095319983e-24	1.729451035719989e-17	2.772056404241394e-25	-2.027919624886833e-17	0.93	9.629649721936179e-35	-1.562862543221712e-24	4.91654765078011e-15	-8.644066148751308e-23	2.752823120203652e-16	4.804575798352838e-18	-8.335577166497666e-20	8.833707133607656e-19	3.540249399484706e-16	1.44326207797579e-23	1.493300503690836e-14	-2.830510477421089e-15	2.752823070347611e-16	4.804597006815955e-18	3.997675686185384e-21	-4.244874768145675e-20	4.269960149123809e-17	2.144352870140686e-16	-8.905227008934258e-16	2.452834649840132e-16	6.192823144581443	-0.8008709839390756	-4.507051723638156	412.9624586980858	405.0338921869239	-1.420879906251354e-16	1.687457072047385e-16	156.6276328017157	2.35677183985921	38.07833574390154	-157.7414176232412	88.08458967985939	-2.231900263356654e-14	-1.05036914130155e-15
40.6	0	0	0	0	0.93	0	0	0	0	0	0	0	0	0	0	0	0	0	0	0	0	0	0	0	0	3.841680646948523	-0.3677535934844153	-6.863388449561718	406.56317366953	405.4407487834427	0	0	156.4516779888025	2.416903668795267	38.06814336502141	-157.7138689376533	87.27885558440782	0	0
40.61666666666667	0	0	0	0	0.93	0	0	0	0	0	0	0	0	0	0	0	0	0	0	0	0	0	0	0	0	1.982165129132304	-0.3799070747738236	-8.410291188205631	399.6387352232797	405.5728691767934	0	0	156.3444778682908	2.435644597033646	38.13443455493459	-157.7903512390905	86.85209285618934	0	0
40.63333333333333	4.189200052701155e-26	-1.305681469378249e-16	-7.798710746815114e-28	-9.478228978588724e-26	0.93	3.034872585163902e-25	2.747915297858375e-34	5.466321525094733e-23	0	0	-4.944577720225038e-17	-1.750498796304078e-22	1.986772248418171e-22	-3.412769613375474e-14	4.605800121897213e-22	-8.809405263781695e-33	3.076730599290425e-23	0	-4.949301456244251e-17	1.885655556729465e-22	1.233178938523089e-18	-1.09990943713838e-14	8.125137127716069e-26	-1.370016912119015e-22	-9.471271961507554e-24	1.337124812445635	-0.7035563025038324	-8.433352687555937	396.0566948063179	404.8540909465631	-4.715406234918489e-18	2.937940760585441e-15	156.235824233396	2.530741424693699	38.39815315486182	-158.2109358911595	86.80576894203465	1.314180721878046e-17	7.962835211640608e-17
40.65	0	0	0	0	0.93	0	0	0	0	1.052357267868557e-38	4.591774807899561e-41	0	0	0	0	0	0	1.052357267868557e-38	0	0	0	0	0	0	0	1.120620841447242	-1.475199678174828	-7.422581842417111	392.2135171365657	403.195705134537	0	0	156.1942924155762	2.620055614572523	38.72899165233571	-158.8291956208299	86.68019258246163	0	0
40.66666666666666	2.994678632165811e-28	-1.923458945266522e-18	4.536216570179705e-30	9.723000100642403e-21	0.93	-4.677178852958431e-20	0	6.027274296357469e-19	0	0	-5.956638823429654e-18	6.273298879730002e-22	3.450154978756511e-23	1.047063441495698e-18	1.062501055281789e-22	0	-3.954860043052942e-29	0	-5.790380339029223e-18	1.07463071546539e-23	-2.053413836118033e-23	2.269885947786265e-18	-5.042446554892501e-28	-4.042817034985626e-18	-4.09258795007103e-17	1.298985616984189	-2.56395155692342	-5.542643275903819	384.4626055281412	400.6106274396161	1.610856772894722e-25	1.326717748975978e-25	156.2627818238947	2.609645327203854	39.00488522042907	-159.6173828718384	87.46514854837481	4.567897339575738e-18	-4.949561881103587e-19
40.68333333333333	3.837333623916178e-27	8.342904946301571e-23	-4.177545064153868e-28	-1.595899507629128e-27	0.93	1.531698276836237e-22	-7.167747272897651e-30	-1.466746673093529e-21	0	0	-2.325197378576495e-17	-1.729453517066978e-21	-9.039973996486084e-20	4.931111504483699e-21	2.594329755750574e-20	-1.36898272168123e-26	7.458464925280779e-19	0	-2.31967858352409e-17	2.47729600046404e-18	2.733777474735361e-22	-5.908864275985198e-21	1.650702289147359e-27	-7.741223273971613e-24	-1.651262523997337e-23	1.607643987577406	-3.115345207053502	-4.415420858518901	380.8617648694498	398.8994437740342	4.3293410532747e-18	-2.497689283881258e-21	156.352059132779	2.613996832694213	39.2208435837321	-160.4094756475071	89.21181433348211	-2.219062116905699e-20	-9.42364774233063e-22
40.7	4.018965204270816e-26	-2.078126980595998e-18	5.605816036982421e-26	2.567987532932111e-25	0.93	-3.041047998009817e-22	-1.730140283528811e-31	-1.27949948530874e-22	0	0	-8.791883189840989e-17	-6.04714100816569e-21	-2.246566919899318e-21	-2.364054927000178e-17	2.082124217713364e-21	-4.762794555632365e-30	-2.283327742875379e-20	0	-8.970584673088585e-17	7.415184499026328e-21	3.046656098707727e-17	1.715312535768462e-17	-2.115285143027174e-26	1.718669178709579e-25	-1.426920396289577e-22	1.742953176444715	-3.516712708556594	-2.551377758568261	375.6078142805646	394.9429163569925	-8.997340221939538e-19	8.141937636700641e-19	156.319725754347	2.676207454201403	39.37569620343385	-161.1021125842321	90.12940715242726	-5.281175114854773e-19	2.890280909897738e-18
